<?xml version="1.0" encoding="iso-8859-1"?>
<!-- Uploaded to: SVG Repo, www.svgrepo.com, Generator: SVG Repo Mixer Tools -->
<!DOCTYPE svg PUBLIC "-//W3C//DTD SVG 1.1//EN" "http://www.w3.org/Graphics/SVG/1.1/DTD/svg11.dtd">
<svg fill="#000000" version="1.1" id="Capa_1" xmlns="http://www.w3.org/2000/svg" xmlns:xlink="http://www.w3.org/1999/xlink" 
	 width="800px" height="800px" viewBox="0 0 533.246 533.246"
	 xml:space="preserve">
<g>
	<path d="M295.828,362.626h237.418l-91.7-274.412H91.688L0,362.626h226.331v52.512h-67.108v29.894h191.674v-29.894h-55.069V362.626z
		 M272.602,219.815V112.129h74.021l18.706,107.686H272.602z M367.408,231.772l18.566,106.939H272.613V231.772H367.408z
		 M260.645,219.815h-90.41l19.36-107.686h71.038v107.686H260.645z M260.645,231.772v106.939H148.859l19.227-106.939H260.645z
		 M398.107,338.712l-18.566-106.939h84.752l35.721,106.939H398.107z M460.312,219.815h-82.838l-18.707-107.686h65.556
		L460.312,219.815z M108.918,112.129h68.527L158.09,219.815H72.941L108.918,112.129z M68.947,231.772h86.988l-19.226,106.939H33.204
		L68.947,231.772z"/>
</g>
</svg>